G04 #@! TF.FileFunction,Soldermask,Top*
%FSLAX46Y46*%
G04 Gerber Fmt 4.6, Leading zero omitted, Abs format (unit mm)*
G04 Created by KiCad (PCBNEW 4.0.3-stable) date 09/05/16 17:50:14*
%MOMM*%
%LPD*%
G01*
G04 APERTURE LIST*
%ADD10C,0.100000*%
%ADD11O,2.000000X2.000000*%
%ADD12C,1.600000*%
%ADD13R,1.600000X1.600000*%
%ADD14C,2.398980*%
%ADD15C,3.400000*%
%ADD16C,1.700000*%
%ADD17R,1.700000X1.700000*%
%ADD18R,2.127200X2.432000*%
%ADD19O,2.127200X2.432000*%
%ADD20R,2.432000X2.432000*%
%ADD21O,2.432000X2.432000*%
%ADD22O,1.900000X2.400000*%
%ADD23C,5.401260*%
G04 APERTURE END LIST*
D10*
D11*
X214630000Y-104140000D03*
X217170000Y-104140000D03*
X219710000Y-104140000D03*
X222250000Y-104140000D03*
X224790000Y-104140000D03*
X227330000Y-104140000D03*
X229870000Y-104140000D03*
X232410000Y-104140000D03*
X234950000Y-104140000D03*
X237490000Y-104140000D03*
X237490000Y-96520000D03*
X234950000Y-96520000D03*
X232410000Y-96520000D03*
X229870000Y-96520000D03*
X227330000Y-96520000D03*
X224790000Y-96520000D03*
X222250000Y-96520000D03*
X219710000Y-96520000D03*
X217170000Y-96520000D03*
X214630000Y-96520000D03*
D12*
X267970000Y-88644000D03*
X270510000Y-88644000D03*
X273050000Y-88644000D03*
X275590000Y-88644000D03*
X278130000Y-88644000D03*
X280670000Y-88644000D03*
X283210000Y-88644000D03*
X285750000Y-88644000D03*
X288290000Y-88644000D03*
X290830000Y-88644000D03*
X293370000Y-88644000D03*
X295910000Y-88644000D03*
X298450000Y-88644000D03*
X300990000Y-88644000D03*
X303530000Y-88644000D03*
X306070000Y-88644000D03*
X308610000Y-88644000D03*
D13*
X267970000Y-104136000D03*
D12*
X270510000Y-104136000D03*
X273050000Y-104136000D03*
X275590000Y-104136000D03*
X278130000Y-104136000D03*
X280670000Y-104136000D03*
X283210000Y-104136000D03*
X285750000Y-104136000D03*
X288290000Y-104136000D03*
X290830000Y-104136000D03*
X293370000Y-104136000D03*
X295910000Y-104136000D03*
X298450000Y-104136000D03*
X300990000Y-104136000D03*
X303530000Y-104136000D03*
X306070000Y-104136000D03*
X308610000Y-104136000D03*
D14*
X353060000Y-137160000D03*
X353060000Y-152160000D03*
D15*
X46990000Y-165100000D03*
X46990000Y-77470000D03*
X375920000Y-165100000D03*
D16*
X79050000Y-100330000D03*
D17*
X82550000Y-100330000D03*
D18*
X74930000Y-162560000D03*
D19*
X72390000Y-162560000D03*
X69850000Y-162560000D03*
X67310000Y-162560000D03*
X64770000Y-162560000D03*
X62230000Y-162560000D03*
X59690000Y-162560000D03*
D20*
X86360000Y-162560000D03*
D21*
X83820000Y-162560000D03*
D20*
X93980000Y-162560000D03*
D21*
X91440000Y-162560000D03*
D20*
X101600000Y-162560000D03*
D21*
X99060000Y-162560000D03*
D18*
X128270000Y-162560000D03*
D19*
X125730000Y-162560000D03*
X123190000Y-162560000D03*
X120650000Y-162560000D03*
X118110000Y-162560000D03*
X115570000Y-162560000D03*
X113030000Y-162560000D03*
D20*
X139700000Y-162560000D03*
D21*
X137160000Y-162560000D03*
D11*
X107950000Y-104140000D03*
X110490000Y-104140000D03*
X113030000Y-104140000D03*
X115570000Y-104140000D03*
X118110000Y-104140000D03*
X120650000Y-104140000D03*
X123190000Y-104140000D03*
X125730000Y-104140000D03*
X125730000Y-96520000D03*
X123190000Y-96520000D03*
X120650000Y-96520000D03*
X118110000Y-96520000D03*
X115570000Y-96520000D03*
X113030000Y-96520000D03*
X110490000Y-96520000D03*
X107950000Y-96520000D03*
D20*
X147320000Y-162560000D03*
D21*
X144780000Y-162560000D03*
D20*
X154940000Y-162560000D03*
D21*
X152400000Y-162560000D03*
D18*
X181610000Y-162560000D03*
D19*
X179070000Y-162560000D03*
X176530000Y-162560000D03*
X173990000Y-162560000D03*
X171450000Y-162560000D03*
X168910000Y-162560000D03*
X166370000Y-162560000D03*
D20*
X193040000Y-162560000D03*
D21*
X190500000Y-162560000D03*
D11*
X161290000Y-104140000D03*
X163830000Y-104140000D03*
X166370000Y-104140000D03*
X168910000Y-104140000D03*
X171450000Y-104140000D03*
X173990000Y-104140000D03*
X176530000Y-104140000D03*
X179070000Y-104140000D03*
X181610000Y-104140000D03*
X184150000Y-104140000D03*
X184150000Y-96520000D03*
X181610000Y-96520000D03*
X179070000Y-96520000D03*
X176530000Y-96520000D03*
X173990000Y-96520000D03*
X171450000Y-96520000D03*
X168910000Y-96520000D03*
X166370000Y-96520000D03*
X163830000Y-96520000D03*
X161290000Y-96520000D03*
D20*
X200660000Y-162560000D03*
D21*
X198120000Y-162560000D03*
D20*
X208280000Y-162560000D03*
D21*
X205740000Y-162560000D03*
D18*
X234950000Y-162560000D03*
D19*
X232410000Y-162560000D03*
X229870000Y-162560000D03*
X227330000Y-162560000D03*
X224790000Y-162560000D03*
X222250000Y-162560000D03*
X219710000Y-162560000D03*
D20*
X246380000Y-162560000D03*
D21*
X243840000Y-162560000D03*
D20*
X254000000Y-162560000D03*
D21*
X251460000Y-162560000D03*
D20*
X261620000Y-162560000D03*
D21*
X259080000Y-162560000D03*
D18*
X288290000Y-162560000D03*
D19*
X285750000Y-162560000D03*
X283210000Y-162560000D03*
X280670000Y-162560000D03*
X278130000Y-162560000D03*
X275590000Y-162560000D03*
X273050000Y-162560000D03*
D20*
X299720000Y-162560000D03*
D21*
X297180000Y-162560000D03*
D20*
X307340000Y-162560000D03*
D21*
X304800000Y-162560000D03*
D20*
X314960000Y-162560000D03*
D21*
X312420000Y-162560000D03*
D18*
X341630000Y-162560000D03*
D19*
X339090000Y-162560000D03*
X336550000Y-162560000D03*
X334010000Y-162560000D03*
X331470000Y-162560000D03*
X328930000Y-162560000D03*
X326390000Y-162560000D03*
D20*
X353060000Y-162560000D03*
D21*
X350520000Y-162560000D03*
D20*
X360680000Y-162560000D03*
D21*
X358140000Y-162560000D03*
D20*
X368300000Y-162560000D03*
D21*
X365760000Y-162560000D03*
D14*
X78740000Y-137160000D03*
X78740000Y-152160000D03*
X86360000Y-137160000D03*
X86360000Y-152160000D03*
X93980000Y-137160000D03*
X93980000Y-152160000D03*
X101600000Y-137160000D03*
X101600000Y-152160000D03*
X132080000Y-137160000D03*
X132080000Y-152160000D03*
X139700000Y-137160000D03*
X139700000Y-152160000D03*
X147320000Y-137160000D03*
X147320000Y-152160000D03*
X154940000Y-137160000D03*
X154940000Y-152160000D03*
X185420000Y-137160000D03*
X185420000Y-152160000D03*
X193040000Y-137160000D03*
X193040000Y-152160000D03*
X200660000Y-137160000D03*
X200660000Y-152160000D03*
X208280000Y-137160000D03*
X208280000Y-152160000D03*
X238760000Y-137160000D03*
X238760000Y-152160000D03*
X246380000Y-137160000D03*
X246380000Y-152160000D03*
X254000000Y-137160000D03*
X254000000Y-152160000D03*
X261620000Y-137160000D03*
X261620000Y-152160000D03*
X292100000Y-137160000D03*
X292100000Y-152160000D03*
X299720000Y-137160000D03*
X299720000Y-152160000D03*
X307340000Y-137160000D03*
X307340000Y-152160000D03*
X314960000Y-137160000D03*
X314960000Y-152160000D03*
X345440000Y-137160000D03*
X345440000Y-152160000D03*
X360680000Y-137160000D03*
X360680000Y-152160000D03*
X368300000Y-137160000D03*
X368300000Y-152160000D03*
D22*
X72390000Y-149860000D03*
X72390000Y-137160000D03*
X69850000Y-149860000D03*
X69850000Y-137160000D03*
X67310000Y-149860000D03*
X67310000Y-137160000D03*
X64770000Y-149860000D03*
X64770000Y-137160000D03*
X62230000Y-149860000D03*
X62230000Y-137160000D03*
X59690000Y-149860000D03*
X59690000Y-137160000D03*
X57150000Y-149860000D03*
X57150000Y-137160000D03*
X54610000Y-149860000D03*
X54610000Y-137160000D03*
X125730000Y-149860000D03*
X125730000Y-137160000D03*
X123190000Y-149860000D03*
X123190000Y-137160000D03*
X120650000Y-149860000D03*
X120650000Y-137160000D03*
X118110000Y-149860000D03*
X118110000Y-137160000D03*
X115570000Y-149860000D03*
X115570000Y-137160000D03*
X113030000Y-149860000D03*
X113030000Y-137160000D03*
X110490000Y-149860000D03*
X110490000Y-137160000D03*
X107950000Y-149860000D03*
X107950000Y-137160000D03*
X179070000Y-149860000D03*
X179070000Y-137160000D03*
X176530000Y-149860000D03*
X176530000Y-137160000D03*
X173990000Y-149860000D03*
X173990000Y-137160000D03*
X171450000Y-149860000D03*
X171450000Y-137160000D03*
X168910000Y-149860000D03*
X168910000Y-137160000D03*
X166370000Y-149860000D03*
X166370000Y-137160000D03*
X163830000Y-149860000D03*
X163830000Y-137160000D03*
X161290000Y-149860000D03*
X161290000Y-137160000D03*
X232410000Y-149860000D03*
X232410000Y-137160000D03*
X229870000Y-149860000D03*
X229870000Y-137160000D03*
X227330000Y-149860000D03*
X227330000Y-137160000D03*
X224790000Y-149860000D03*
X224790000Y-137160000D03*
X222250000Y-149860000D03*
X222250000Y-137160000D03*
X219710000Y-149860000D03*
X219710000Y-137160000D03*
X217170000Y-149860000D03*
X217170000Y-137160000D03*
X214630000Y-149860000D03*
X214630000Y-137160000D03*
X285750000Y-149860000D03*
X285750000Y-137160000D03*
X283210000Y-149860000D03*
X283210000Y-137160000D03*
X280670000Y-149860000D03*
X280670000Y-137160000D03*
X278130000Y-149860000D03*
X278130000Y-137160000D03*
X275590000Y-149860000D03*
X275590000Y-137160000D03*
X273050000Y-149860000D03*
X273050000Y-137160000D03*
X270510000Y-149860000D03*
X270510000Y-137160000D03*
X267970000Y-149860000D03*
X267970000Y-137160000D03*
X339090000Y-149860000D03*
X339090000Y-137160000D03*
X336550000Y-149860000D03*
X336550000Y-137160000D03*
X334010000Y-149860000D03*
X334010000Y-137160000D03*
X331470000Y-149860000D03*
X331470000Y-137160000D03*
X328930000Y-149860000D03*
X328930000Y-137160000D03*
X326390000Y-149860000D03*
X326390000Y-137160000D03*
X323850000Y-149860000D03*
X323850000Y-137160000D03*
X321310000Y-149860000D03*
X321310000Y-137160000D03*
D23*
X72390000Y-78740000D03*
X82550000Y-78740000D03*
D15*
X375920000Y-77470000D03*
D20*
X48260000Y-91440000D03*
D21*
X48260000Y-88900000D03*
M02*
