M48
;DRILL file {KiCad 4.0.3-stable} date 09/06/16 09:44:24
;FORMAT={-:-/ absolute / inch / decimal}
FMAT,2
INCH,TZ
T1C0.016
T2C0.031
T3C0.039
T4C0.040
T5C0.098
%
G90
G05
M72
T1
X2.05Y-4.8
X2.05Y-6.05
X2.15Y-4.95
X2.25Y-4.55
X2.35Y-4.35
X2.65Y-4.9
X2.75Y-4.85
X3.1Y-4.45
X3.3Y-4.65
X3.4Y-4.35
X3.6Y-5.55
X3.7Y-4.45
X4.Y-4.35
X4.1Y-4.35
X4.15Y-4.75
X4.15Y-6.05
X4.25Y-4.7
X4.35Y-4.6
X4.45Y-4.35
X4.55Y-4.95
X4.65Y-4.7
X4.75Y-5.1
X4.8Y-4.9
X4.85Y-5.25
X4.9Y-3.1
X4.9Y-4.85
X4.95Y-3.15
X4.95Y-4.45
X5.Y-3.2
X5.05Y-5.15
X5.1Y-5.2
X5.2Y-4.45
X5.4Y-4.7
X5.5Y-4.35
X5.7Y-5.55
X5.8Y-4.45
X5.95Y-5.05
X6.Y-4.65
X6.05Y-4.7
X6.1Y-4.95
X6.2Y-4.35
X6.25Y-6.05
X6.3Y-4.7
X6.35Y-5.
X6.35Y-5.1
X6.45Y-4.65
X6.55Y-4.35
X6.85Y-3.25
X6.85Y-5.1
X6.85Y-5.4
X6.9Y-4.9
X6.95Y-4.45
X6.95Y-4.85
X7.05Y-3.3
X7.05Y-4.35
X7.15Y-3.35
X7.3Y-4.45
X7.4Y-4.35
X7.5Y-4.95
X7.6Y-4.35
X7.8Y-5.55
X7.9Y-4.45
X8.05Y-4.95
X8.1Y-4.8
X8.15Y-4.75
X8.2Y-4.7
X8.3Y-4.35
X8.35Y-4.95
X8.35Y-6.05
X8.45Y-4.75
X8.45Y-5.25
X8.55Y-4.7
X8.65Y-4.35
X8.95Y-3.25
X8.95Y-4.95
X9.Y-4.9
X9.05Y-4.45
X9.05Y-4.85
X9.15Y-3.3
X9.15Y-4.35
X9.25Y-3.35
X9.4Y-4.45
X9.5Y-4.35
X9.6Y-5.05
X9.7Y-4.35
X9.85Y-3.6
X9.9Y-5.55
X10.Y-4.45
X10.3Y-4.35
X10.45Y-4.75
X10.45Y-6.05
X10.55Y-5.15
X10.65Y-4.75
X10.65Y-6.05
X10.75Y-4.35
X10.85Y-4.
X11.05Y-4.45
X11.05Y-4.9
X11.15Y-4.55
X11.15Y-4.85
X11.25Y-4.6
X11.35Y-3.75
X11.35Y-4.65
X11.4Y-4.7
X11.5Y-4.45
X11.6Y-4.75
X11.65Y-4.8
X11.7Y-5.
X11.8Y-4.55
X12.Y-5.55
X12.05Y-3.85
X12.1Y-4.45
X12.35Y-3.25
X12.35Y-4.2
X12.4Y-3.2
X12.4Y-4.25
X12.4Y-4.55
X12.45Y-3.15
X12.45Y-4.3
X12.55Y-4.95
X12.55Y-6.05
X12.65Y-5.2
X12.75Y-4.8
X12.85Y-3.6
X12.85Y-4.55
X13.15Y-3.75
X13.15Y-4.9
X13.25Y-4.85
X13.6Y-4.45
X13.8Y-5.1
X13.9Y-4.55
X14.1Y-5.55
X14.2Y-4.45
X14.625Y-3.6
X14.625Y-4.55
T2
X2.15Y-5.4
X2.15Y-5.9
X2.25Y-5.4
X2.25Y-5.9
X2.35Y-5.4
X2.35Y-5.9
X2.45Y-5.4
X2.45Y-5.9
X2.55Y-5.4
X2.55Y-5.9
X2.65Y-5.4
X2.65Y-5.9
X2.75Y-5.4
X2.75Y-5.9
X2.85Y-5.4
X2.85Y-5.9
X3.1122Y-3.95
X3.25Y-3.95
X4.25Y-3.8
X4.25Y-4.1
X4.25Y-5.4
X4.25Y-5.9
X4.35Y-3.8
X4.35Y-4.1
X4.35Y-5.4
X4.35Y-5.9
X4.45Y-3.8
X4.45Y-4.1
X4.45Y-5.4
X4.45Y-5.9
X4.55Y-3.8
X4.55Y-4.1
X4.55Y-5.4
X4.55Y-5.9
X4.65Y-3.8
X4.65Y-4.1
X4.65Y-5.4
X4.65Y-5.9
X4.75Y-3.8
X4.75Y-4.1
X4.75Y-5.4
X4.75Y-5.9
X4.85Y-3.8
X4.85Y-4.1
X4.85Y-5.4
X4.85Y-5.9
X4.95Y-3.8
X4.95Y-4.1
X4.95Y-5.4
X4.95Y-5.9
X6.35Y-3.8
X6.35Y-4.1
X6.35Y-5.4
X6.35Y-5.9
X6.45Y-3.8
X6.45Y-4.1
X6.45Y-5.4
X6.45Y-5.9
X6.55Y-3.8
X6.55Y-4.1
X6.55Y-5.4
X6.55Y-5.9
X6.65Y-3.8
X6.65Y-4.1
X6.65Y-5.4
X6.65Y-5.9
X6.75Y-3.8
X6.75Y-4.1
X6.75Y-5.4
X6.75Y-5.9
X6.85Y-3.8
X6.85Y-4.1
X6.85Y-5.4
X6.85Y-5.9
X6.95Y-3.8
X6.95Y-4.1
X6.95Y-5.4
X6.95Y-5.9
X7.05Y-3.8
X7.05Y-4.1
X7.05Y-5.4
X7.05Y-5.9
X7.15Y-3.8
X7.15Y-4.1
X7.25Y-3.8
X7.25Y-4.1
X8.45Y-3.8
X8.45Y-4.1
X8.45Y-5.4
X8.45Y-5.9
X8.55Y-3.8
X8.55Y-4.1
X8.55Y-5.4
X8.55Y-5.9
X8.65Y-3.8
X8.65Y-4.1
X8.65Y-5.4
X8.65Y-5.9
X8.75Y-3.8
X8.75Y-4.1
X8.75Y-5.4
X8.75Y-5.9
X8.85Y-3.8
X8.85Y-4.1
X8.85Y-5.4
X8.85Y-5.9
X8.95Y-3.8
X8.95Y-4.1
X8.95Y-5.4
X8.95Y-5.9
X9.05Y-3.8
X9.05Y-4.1
X9.05Y-5.4
X9.05Y-5.9
X9.15Y-3.8
X9.15Y-4.1
X9.15Y-5.4
X9.15Y-5.9
X9.25Y-3.8
X9.25Y-4.1
X9.35Y-3.8
X9.35Y-4.1
X10.55Y-3.4899
X10.55Y-4.0998
X10.55Y-5.4
X10.55Y-5.9
X10.65Y-3.4899
X10.65Y-4.0998
X10.65Y-5.4
X10.65Y-5.9
X10.75Y-3.4899
X10.75Y-4.0998
X10.75Y-5.4
X10.75Y-5.9
X10.85Y-3.4899
X10.85Y-4.0998
X10.85Y-5.4
X10.85Y-5.9
X10.95Y-3.4899
X10.95Y-4.0998
X10.95Y-5.4
X10.95Y-5.9
X11.05Y-3.4899
X11.05Y-4.0998
X11.05Y-5.4
X11.05Y-5.9
X11.15Y-3.4899
X11.15Y-4.0998
X11.15Y-5.4
X11.15Y-5.9
X11.25Y-3.4899
X11.25Y-4.0998
X11.25Y-5.4
X11.25Y-5.9
X11.35Y-3.4899
X11.35Y-4.0998
X11.45Y-3.4899
X11.45Y-4.0998
X11.55Y-3.4899
X11.55Y-4.0998
X11.65Y-3.4899
X11.65Y-4.0998
X11.75Y-3.4899
X11.75Y-4.0998
X11.85Y-3.4899
X11.85Y-4.0998
X11.95Y-3.4899
X11.95Y-4.0998
X12.05Y-3.4899
X12.05Y-4.0998
X12.15Y-3.4899
X12.15Y-4.0998
X12.65Y-5.4
X12.65Y-5.9
X12.75Y-5.4
X12.75Y-5.9
X12.85Y-5.4
X12.85Y-5.9
X12.95Y-5.4
X12.95Y-5.9
X13.05Y-5.4
X13.05Y-5.9
X13.15Y-5.4
X13.15Y-5.9
X13.25Y-5.4
X13.25Y-5.9
X13.35Y-5.4
X13.35Y-5.9
T3
X3.1Y-5.4
X3.1Y-5.9906
X3.4Y-5.4
X3.4Y-5.9906
X3.7Y-5.4
X3.7Y-5.9906
X4.Y-5.4
X4.Y-5.9906
X5.2Y-5.4
X5.2Y-5.9906
X5.5Y-5.4
X5.5Y-5.9906
X5.8Y-5.4
X5.8Y-5.9906
X6.1Y-5.4
X6.1Y-5.9906
X7.3Y-5.4
X7.3Y-5.9906
X7.6Y-5.4
X7.6Y-5.9906
X7.9Y-5.4
X7.9Y-5.9906
X8.2Y-5.4
X8.2Y-5.9906
X9.4Y-5.4
X9.4Y-5.9906
X9.7Y-5.4
X9.7Y-5.9906
X10.Y-5.4
X10.Y-5.9906
X10.3Y-5.4
X10.3Y-5.9906
X11.5Y-5.4
X11.5Y-5.9906
X11.8Y-5.4
X11.8Y-5.9906
X12.1Y-5.4
X12.1Y-5.9906
X12.4Y-5.4
X12.4Y-5.9906
X13.6Y-5.4
X13.6Y-5.9906
X13.9Y-5.4
X13.9Y-5.9906
X14.2Y-5.4
X14.2Y-5.9906
X14.5Y-5.4
X14.5Y-5.9906
T4
X1.9Y-3.5
X1.9Y-3.6
X2.35Y-6.4
X2.45Y-6.4
X2.55Y-6.4
X2.65Y-6.4
X2.75Y-6.4
X2.85Y-6.4
X2.95Y-6.4
X3.3Y-6.4
X3.4Y-6.4
X3.6Y-6.4
X3.7Y-6.4
X3.9Y-6.4
X4.Y-6.4
X4.45Y-6.4
X4.55Y-6.4
X4.65Y-6.4
X4.75Y-6.4
X4.85Y-6.4
X4.95Y-6.4
X5.05Y-6.4
X5.4Y-6.4
X5.5Y-6.4
X5.7Y-6.4
X5.8Y-6.4
X6.Y-6.4
X6.1Y-6.4
X6.55Y-6.4
X6.65Y-6.4
X6.75Y-6.4
X6.85Y-6.4
X6.95Y-6.4
X7.05Y-6.4
X7.15Y-6.4
X7.5Y-6.4
X7.6Y-6.4
X7.8Y-6.4
X7.9Y-6.4
X8.1Y-6.4
X8.2Y-6.4
X8.65Y-6.4
X8.75Y-6.4
X8.85Y-6.4
X8.95Y-6.4
X9.05Y-6.4
X9.15Y-6.4
X9.25Y-6.4
X9.6Y-6.4
X9.7Y-6.4
X9.9Y-6.4
X10.Y-6.4
X10.2Y-6.4
X10.3Y-6.4
X10.75Y-6.4
X10.85Y-6.4
X10.95Y-6.4
X11.05Y-6.4
X11.15Y-6.4
X11.25Y-6.4
X11.35Y-6.4
X11.7Y-6.4
X11.8Y-6.4
X12.Y-6.4
X12.1Y-6.4
X12.3Y-6.4
X12.4Y-6.4
X12.85Y-6.4
X12.95Y-6.4
X13.05Y-6.4
X13.15Y-6.4
X13.25Y-6.4
X13.35Y-6.4
X13.45Y-6.4
X13.8Y-6.4
X13.9Y-6.4
X14.1Y-6.4
X14.2Y-6.4
X14.4Y-6.4
X14.5Y-6.4
T5
X2.85Y-3.1
X3.25Y-3.1
T0
M30
