G04 #@! TF.FileFunction,Copper,L2,Bot,Signal*
%FSLAX46Y46*%
G04 Gerber Fmt 4.6, Leading zero omitted, Abs format (unit mm)*
G04 Created by KiCad (PCBNEW 4.0.3-stable) date 09/06/16 09:06:52*
%MOMM*%
%LPD*%
G01*
G04 APERTURE LIST*
%ADD10C,0.100000*%
%ADD11O,1.600000X1.600000*%
%ADD12C,1.200000*%
%ADD13R,1.200000X1.200000*%
%ADD14C,1.998980*%
%ADD15C,1.300000*%
%ADD16R,1.300000X1.300000*%
%ADD17R,1.727200X2.032000*%
%ADD18O,1.727200X2.032000*%
%ADD19R,2.032000X2.032000*%
%ADD20O,2.032000X2.032000*%
%ADD21O,1.500000X2.000000*%
%ADD22C,5.001260*%
%ADD23C,0.600000*%
%ADD24C,1.500000*%
%ADD25C,0.500000*%
G04 APERTURE END LIST*
D10*
D11*
X214630000Y-104140000D03*
X217170000Y-104140000D03*
X219710000Y-104140000D03*
X222250000Y-104140000D03*
X224790000Y-104140000D03*
X227330000Y-104140000D03*
X229870000Y-104140000D03*
X232410000Y-104140000D03*
X234950000Y-104140000D03*
X237490000Y-104140000D03*
X237490000Y-96520000D03*
X234950000Y-96520000D03*
X232410000Y-96520000D03*
X229870000Y-96520000D03*
X227330000Y-96520000D03*
X224790000Y-96520000D03*
X222250000Y-96520000D03*
X219710000Y-96520000D03*
X217170000Y-96520000D03*
X214630000Y-96520000D03*
D12*
X267970000Y-88644000D03*
X270510000Y-88644000D03*
X273050000Y-88644000D03*
X275590000Y-88644000D03*
X278130000Y-88644000D03*
X280670000Y-88644000D03*
X283210000Y-88644000D03*
X285750000Y-88644000D03*
X288290000Y-88644000D03*
X290830000Y-88644000D03*
X293370000Y-88644000D03*
X295910000Y-88644000D03*
X298450000Y-88644000D03*
X300990000Y-88644000D03*
X303530000Y-88644000D03*
X306070000Y-88644000D03*
X308610000Y-88644000D03*
D13*
X267970000Y-104136000D03*
D12*
X270510000Y-104136000D03*
X273050000Y-104136000D03*
X275590000Y-104136000D03*
X278130000Y-104136000D03*
X280670000Y-104136000D03*
X283210000Y-104136000D03*
X285750000Y-104136000D03*
X288290000Y-104136000D03*
X290830000Y-104136000D03*
X293370000Y-104136000D03*
X295910000Y-104136000D03*
X298450000Y-104136000D03*
X300990000Y-104136000D03*
X303530000Y-104136000D03*
X306070000Y-104136000D03*
X308610000Y-104136000D03*
D14*
X353060000Y-137160000D03*
X353060000Y-152160000D03*
D15*
X79050000Y-100330000D03*
D16*
X82550000Y-100330000D03*
D17*
X74930000Y-162560000D03*
D18*
X72390000Y-162560000D03*
X69850000Y-162560000D03*
X67310000Y-162560000D03*
X64770000Y-162560000D03*
X62230000Y-162560000D03*
X59690000Y-162560000D03*
D19*
X86360000Y-162560000D03*
D20*
X83820000Y-162560000D03*
D19*
X93980000Y-162560000D03*
D20*
X91440000Y-162560000D03*
D19*
X101600000Y-162560000D03*
D20*
X99060000Y-162560000D03*
D17*
X128270000Y-162560000D03*
D18*
X125730000Y-162560000D03*
X123190000Y-162560000D03*
X120650000Y-162560000D03*
X118110000Y-162560000D03*
X115570000Y-162560000D03*
X113030000Y-162560000D03*
D19*
X139700000Y-162560000D03*
D20*
X137160000Y-162560000D03*
D11*
X107950000Y-104140000D03*
X110490000Y-104140000D03*
X113030000Y-104140000D03*
X115570000Y-104140000D03*
X118110000Y-104140000D03*
X120650000Y-104140000D03*
X123190000Y-104140000D03*
X125730000Y-104140000D03*
X125730000Y-96520000D03*
X123190000Y-96520000D03*
X120650000Y-96520000D03*
X118110000Y-96520000D03*
X115570000Y-96520000D03*
X113030000Y-96520000D03*
X110490000Y-96520000D03*
X107950000Y-96520000D03*
D19*
X147320000Y-162560000D03*
D20*
X144780000Y-162560000D03*
D19*
X154940000Y-162560000D03*
D20*
X152400000Y-162560000D03*
D17*
X181610000Y-162560000D03*
D18*
X179070000Y-162560000D03*
X176530000Y-162560000D03*
X173990000Y-162560000D03*
X171450000Y-162560000D03*
X168910000Y-162560000D03*
X166370000Y-162560000D03*
D19*
X193040000Y-162560000D03*
D20*
X190500000Y-162560000D03*
D11*
X161290000Y-104140000D03*
X163830000Y-104140000D03*
X166370000Y-104140000D03*
X168910000Y-104140000D03*
X171450000Y-104140000D03*
X173990000Y-104140000D03*
X176530000Y-104140000D03*
X179070000Y-104140000D03*
X181610000Y-104140000D03*
X184150000Y-104140000D03*
X184150000Y-96520000D03*
X181610000Y-96520000D03*
X179070000Y-96520000D03*
X176530000Y-96520000D03*
X173990000Y-96520000D03*
X171450000Y-96520000D03*
X168910000Y-96520000D03*
X166370000Y-96520000D03*
X163830000Y-96520000D03*
X161290000Y-96520000D03*
D19*
X200660000Y-162560000D03*
D20*
X198120000Y-162560000D03*
D19*
X208280000Y-162560000D03*
D20*
X205740000Y-162560000D03*
D17*
X234950000Y-162560000D03*
D18*
X232410000Y-162560000D03*
X229870000Y-162560000D03*
X227330000Y-162560000D03*
X224790000Y-162560000D03*
X222250000Y-162560000D03*
X219710000Y-162560000D03*
D19*
X246380000Y-162560000D03*
D20*
X243840000Y-162560000D03*
D19*
X254000000Y-162560000D03*
D20*
X251460000Y-162560000D03*
D19*
X261620000Y-162560000D03*
D20*
X259080000Y-162560000D03*
D17*
X288290000Y-162560000D03*
D18*
X285750000Y-162560000D03*
X283210000Y-162560000D03*
X280670000Y-162560000D03*
X278130000Y-162560000D03*
X275590000Y-162560000D03*
X273050000Y-162560000D03*
D19*
X299720000Y-162560000D03*
D20*
X297180000Y-162560000D03*
D19*
X307340000Y-162560000D03*
D20*
X304800000Y-162560000D03*
D19*
X314960000Y-162560000D03*
D20*
X312420000Y-162560000D03*
D17*
X341630000Y-162560000D03*
D18*
X339090000Y-162560000D03*
X336550000Y-162560000D03*
X334010000Y-162560000D03*
X331470000Y-162560000D03*
X328930000Y-162560000D03*
X326390000Y-162560000D03*
D19*
X353060000Y-162560000D03*
D20*
X350520000Y-162560000D03*
D19*
X360680000Y-162560000D03*
D20*
X358140000Y-162560000D03*
D19*
X368300000Y-162560000D03*
D20*
X365760000Y-162560000D03*
D14*
X78740000Y-137160000D03*
X78740000Y-152160000D03*
X86360000Y-137160000D03*
X86360000Y-152160000D03*
X93980000Y-137160000D03*
X93980000Y-152160000D03*
X101600000Y-137160000D03*
X101600000Y-152160000D03*
X132080000Y-137160000D03*
X132080000Y-152160000D03*
X139700000Y-137160000D03*
X139700000Y-152160000D03*
X147320000Y-137160000D03*
X147320000Y-152160000D03*
X154940000Y-137160000D03*
X154940000Y-152160000D03*
X185420000Y-137160000D03*
X185420000Y-152160000D03*
X193040000Y-137160000D03*
X193040000Y-152160000D03*
X200660000Y-137160000D03*
X200660000Y-152160000D03*
X208280000Y-137160000D03*
X208280000Y-152160000D03*
X238760000Y-137160000D03*
X238760000Y-152160000D03*
X246380000Y-137160000D03*
X246380000Y-152160000D03*
X254000000Y-137160000D03*
X254000000Y-152160000D03*
X261620000Y-137160000D03*
X261620000Y-152160000D03*
X292100000Y-137160000D03*
X292100000Y-152160000D03*
X299720000Y-137160000D03*
X299720000Y-152160000D03*
X307340000Y-137160000D03*
X307340000Y-152160000D03*
X314960000Y-137160000D03*
X314960000Y-152160000D03*
X345440000Y-137160000D03*
X345440000Y-152160000D03*
X360680000Y-137160000D03*
X360680000Y-152160000D03*
X368300000Y-137160000D03*
X368300000Y-152160000D03*
D21*
X72390000Y-149860000D03*
X72390000Y-137160000D03*
X69850000Y-149860000D03*
X69850000Y-137160000D03*
X67310000Y-149860000D03*
X67310000Y-137160000D03*
X64770000Y-149860000D03*
X64770000Y-137160000D03*
X62230000Y-149860000D03*
X62230000Y-137160000D03*
X59690000Y-149860000D03*
X59690000Y-137160000D03*
X57150000Y-149860000D03*
X57150000Y-137160000D03*
X54610000Y-149860000D03*
X54610000Y-137160000D03*
X125730000Y-149860000D03*
X125730000Y-137160000D03*
X123190000Y-149860000D03*
X123190000Y-137160000D03*
X120650000Y-149860000D03*
X120650000Y-137160000D03*
X118110000Y-149860000D03*
X118110000Y-137160000D03*
X115570000Y-149860000D03*
X115570000Y-137160000D03*
X113030000Y-149860000D03*
X113030000Y-137160000D03*
X110490000Y-149860000D03*
X110490000Y-137160000D03*
X107950000Y-149860000D03*
X107950000Y-137160000D03*
X179070000Y-149860000D03*
X179070000Y-137160000D03*
X176530000Y-149860000D03*
X176530000Y-137160000D03*
X173990000Y-149860000D03*
X173990000Y-137160000D03*
X171450000Y-149860000D03*
X171450000Y-137160000D03*
X168910000Y-149860000D03*
X168910000Y-137160000D03*
X166370000Y-149860000D03*
X166370000Y-137160000D03*
X163830000Y-149860000D03*
X163830000Y-137160000D03*
X161290000Y-149860000D03*
X161290000Y-137160000D03*
X232410000Y-149860000D03*
X232410000Y-137160000D03*
X229870000Y-149860000D03*
X229870000Y-137160000D03*
X227330000Y-149860000D03*
X227330000Y-137160000D03*
X224790000Y-149860000D03*
X224790000Y-137160000D03*
X222250000Y-149860000D03*
X222250000Y-137160000D03*
X219710000Y-149860000D03*
X219710000Y-137160000D03*
X217170000Y-149860000D03*
X217170000Y-137160000D03*
X214630000Y-149860000D03*
X214630000Y-137160000D03*
X285750000Y-149860000D03*
X285750000Y-137160000D03*
X283210000Y-149860000D03*
X283210000Y-137160000D03*
X280670000Y-149860000D03*
X280670000Y-137160000D03*
X278130000Y-149860000D03*
X278130000Y-137160000D03*
X275590000Y-149860000D03*
X275590000Y-137160000D03*
X273050000Y-149860000D03*
X273050000Y-137160000D03*
X270510000Y-149860000D03*
X270510000Y-137160000D03*
X267970000Y-149860000D03*
X267970000Y-137160000D03*
X339090000Y-149860000D03*
X339090000Y-137160000D03*
X336550000Y-149860000D03*
X336550000Y-137160000D03*
X334010000Y-149860000D03*
X334010000Y-137160000D03*
X331470000Y-149860000D03*
X331470000Y-137160000D03*
X328930000Y-149860000D03*
X328930000Y-137160000D03*
X326390000Y-149860000D03*
X326390000Y-137160000D03*
X323850000Y-149860000D03*
X323850000Y-137160000D03*
X321310000Y-149860000D03*
X321310000Y-137160000D03*
D22*
X72390000Y-78740000D03*
X82550000Y-78740000D03*
D19*
X48260000Y-91440000D03*
D20*
X48260000Y-88900000D03*
D23*
X360680000Y-113030000D03*
X307340000Y-113030000D03*
X254000000Y-113030000D03*
X200660000Y-113030000D03*
X147320000Y-113030000D03*
X93980000Y-113030000D03*
X280670000Y-113030000D03*
X176530000Y-113030000D03*
X229870000Y-113030000D03*
X238760000Y-113030000D03*
X275590000Y-101600000D03*
X125730000Y-113030000D03*
X345440000Y-113030000D03*
X292100000Y-113030000D03*
X185420000Y-113030000D03*
X132080000Y-113030000D03*
X78740000Y-113030000D03*
X283210000Y-123190000D03*
X229870000Y-123190000D03*
X124460000Y-123190000D03*
X176530000Y-123190000D03*
X336550000Y-123190000D03*
X69850000Y-123190000D03*
X280670000Y-124460000D03*
X228600000Y-124460000D03*
X121920000Y-124460000D03*
X175260000Y-124460000D03*
X334010000Y-124460000D03*
X67310000Y-124460000D03*
X288290000Y-95250000D03*
X334010000Y-95250000D03*
X173990000Y-137160000D03*
X371475000Y-115570000D03*
X353060000Y-115570000D03*
X299720000Y-115570000D03*
X246380000Y-110490000D03*
X193040000Y-110490000D03*
X139700000Y-110490000D03*
X86360000Y-110490000D03*
X101600000Y-110490000D03*
X261620000Y-110490000D03*
X326390000Y-115570000D03*
X314960000Y-115570000D03*
X326390000Y-91440000D03*
X273050000Y-110490000D03*
X219710000Y-110490000D03*
X166370000Y-110490000D03*
X113030000Y-110490000D03*
X59690000Y-110490000D03*
X250190000Y-91440000D03*
X371475000Y-91440000D03*
X104140000Y-110490000D03*
X157480000Y-110490000D03*
X179070000Y-110490000D03*
X187960000Y-110490000D03*
X210820000Y-110490000D03*
X241300000Y-110490000D03*
X232410000Y-110490000D03*
X173990000Y-82550000D03*
X227330000Y-82550000D03*
X179070000Y-83820000D03*
X232410000Y-83820000D03*
X181610000Y-85090000D03*
X234950000Y-85090000D03*
X313690000Y-106680000D03*
X127000000Y-81280000D03*
X313690000Y-82550000D03*
X314960000Y-107950000D03*
X125730000Y-80010000D03*
X314960000Y-81280000D03*
X316230000Y-109220000D03*
X124460000Y-78740000D03*
X316230000Y-80010000D03*
X306070000Y-97790000D03*
X52070000Y-153670000D03*
X52070000Y-121920000D03*
X205740000Y-121920000D03*
X91440000Y-140970000D03*
X283210000Y-115570000D03*
X57150000Y-115570000D03*
X54610000Y-125730000D03*
X115570000Y-125730000D03*
X83820000Y-118110000D03*
X152400000Y-118110000D03*
X105410000Y-153670000D03*
X105410000Y-120650000D03*
X207010000Y-120650000D03*
X144780000Y-140970000D03*
X110490000Y-116840000D03*
X285750000Y-116840000D03*
X107950000Y-119380000D03*
X118110000Y-119380000D03*
X137160000Y-119380000D03*
X153670000Y-119380000D03*
X120650000Y-129540000D03*
X161290000Y-129540000D03*
X214630000Y-133350000D03*
X123190000Y-133350000D03*
X267970000Y-130810000D03*
X128270000Y-130810000D03*
X321310000Y-132080000D03*
X129540000Y-132080000D03*
X158750000Y-153670000D03*
X160020000Y-119380000D03*
X208280000Y-119380000D03*
X198120000Y-140970000D03*
X163830000Y-118110000D03*
X288290000Y-118110000D03*
X190500000Y-125730000D03*
X154940000Y-125730000D03*
X297180000Y-127000000D03*
X161290000Y-127000000D03*
X350520000Y-129540000D03*
X173990000Y-129540000D03*
X243840000Y-128270000D03*
X151130000Y-128270000D03*
X212090000Y-153670000D03*
X212090000Y-125730000D03*
X204470000Y-125730000D03*
X251460000Y-140970000D03*
X217170000Y-119380000D03*
X289560000Y-119380000D03*
X270510000Y-153670000D03*
X265430000Y-153670000D03*
X265430000Y-120650000D03*
X214630000Y-120650000D03*
X318770000Y-125730000D03*
X227330000Y-125730000D03*
X318770000Y-153670000D03*
X304800000Y-140970000D03*
X270510000Y-120650000D03*
X294640000Y-120650000D03*
X358140000Y-140970000D03*
X323850000Y-121920000D03*
X295910000Y-121920000D03*
D24*
X176530000Y-146050000D02*
X185420000Y-137160000D01*
X360680000Y-137160000D02*
X360680000Y-113030000D01*
X307340000Y-137160000D02*
X307340000Y-113030000D01*
X254000000Y-137160000D02*
X254000000Y-113030000D01*
X200660000Y-137160000D02*
X200660000Y-113030000D01*
X147320000Y-137160000D02*
X147320000Y-113030000D01*
X93980000Y-137160000D02*
X93980000Y-113030000D01*
X280670000Y-104136000D02*
X280670000Y-113030000D01*
X176530000Y-104140000D02*
X176530000Y-113030000D01*
X229870000Y-104140000D02*
X229870000Y-113030000D01*
X238760000Y-137160000D02*
X238760000Y-113030000D01*
X275590000Y-88644000D02*
X275590000Y-101600000D01*
X48260000Y-91440000D02*
X72390000Y-91440000D01*
X125730000Y-104140000D02*
X125730000Y-113030000D01*
X345440000Y-113030000D02*
X345440000Y-137160000D01*
X292100000Y-137160000D02*
X292100000Y-113030000D01*
X185420000Y-137160000D02*
X185420000Y-113030000D01*
X132080000Y-137160000D02*
X132080000Y-113030000D01*
X72390000Y-78740000D02*
X72390000Y-91440000D01*
X72390000Y-91440000D02*
X72390000Y-93670000D01*
X72390000Y-93670000D02*
X79050000Y-100330000D01*
X78740000Y-113030000D02*
X78740000Y-100640000D01*
X78740000Y-100640000D02*
X79050000Y-100330000D01*
X78740000Y-113030000D02*
X78740000Y-137160000D01*
X336550000Y-149860000D02*
X336550000Y-153670000D01*
X339090000Y-156210000D02*
X339090000Y-162560000D01*
X336550000Y-153670000D02*
X339090000Y-156210000D01*
X283210000Y-149860000D02*
X283210000Y-153670000D01*
X285750000Y-156210000D02*
X285750000Y-162560000D01*
X283210000Y-153670000D02*
X285750000Y-156210000D01*
X229870000Y-149860000D02*
X229870000Y-153670000D01*
X232410000Y-156210000D02*
X232410000Y-162560000D01*
X229870000Y-153670000D02*
X232410000Y-156210000D01*
X176530000Y-149860000D02*
X176530000Y-153670000D01*
X179070000Y-156210000D02*
X179070000Y-162560000D01*
X176530000Y-153670000D02*
X179070000Y-156210000D01*
X123190000Y-149860000D02*
X123190000Y-153670000D01*
X125730000Y-156210000D02*
X125730000Y-162560000D01*
X123190000Y-153670000D02*
X125730000Y-156210000D01*
X336550000Y-146050000D02*
X322580000Y-146050000D01*
X321310000Y-147320000D02*
X321310000Y-149860000D01*
X322580000Y-146050000D02*
X321310000Y-147320000D01*
X345440000Y-137160000D02*
X336550000Y-146050000D01*
X336550000Y-146050000D02*
X336550000Y-149860000D01*
X283210000Y-146050000D02*
X269240000Y-146050000D01*
X267970000Y-147320000D02*
X267970000Y-149860000D01*
X269240000Y-146050000D02*
X267970000Y-147320000D01*
X292100000Y-137160000D02*
X283210000Y-146050000D01*
X283210000Y-146050000D02*
X283210000Y-149860000D01*
X229870000Y-146050000D02*
X215900000Y-146050000D01*
X214630000Y-147320000D02*
X214630000Y-149860000D01*
X215900000Y-146050000D02*
X214630000Y-147320000D01*
X238760000Y-137160000D02*
X229870000Y-146050000D01*
X229870000Y-146050000D02*
X229870000Y-149860000D01*
X162560000Y-146050000D02*
X161290000Y-147320000D01*
X176530000Y-146050000D02*
X162560000Y-146050000D01*
X161290000Y-147320000D02*
X161290000Y-149860000D01*
X176530000Y-149860000D02*
X176530000Y-146050000D01*
X123190000Y-146050000D02*
X109220000Y-146050000D01*
X107950000Y-147320000D02*
X107950000Y-149860000D01*
X109220000Y-146050000D02*
X107950000Y-147320000D01*
X132080000Y-137160000D02*
X123190000Y-146050000D01*
X123190000Y-146050000D02*
X123190000Y-149860000D01*
X69850000Y-146050000D02*
X55880000Y-146050000D01*
X54610000Y-147320000D02*
X54610000Y-149860000D01*
X55880000Y-146050000D02*
X54610000Y-147320000D01*
X69850000Y-149860000D02*
X69850000Y-146050000D01*
X69850000Y-146050000D02*
X78740000Y-137160000D01*
X69850000Y-149860000D02*
X69850000Y-153670000D01*
X72390000Y-156210000D02*
X72390000Y-162560000D01*
X69850000Y-153670000D02*
X72390000Y-156210000D01*
D25*
X283210000Y-137160000D02*
X283210000Y-123190000D01*
X229870000Y-137160000D02*
X229870000Y-123190000D01*
X123190000Y-137160000D02*
X123190000Y-135890000D01*
X124460000Y-134620000D02*
X124460000Y-123190000D01*
X123190000Y-135890000D02*
X124460000Y-134620000D01*
X176530000Y-137160000D02*
X176530000Y-123190000D01*
X69850000Y-137160000D02*
X69850000Y-123190000D01*
X336550000Y-123190000D02*
X336550000Y-137160000D01*
X280670000Y-137160000D02*
X280670000Y-124460000D01*
X227330000Y-137160000D02*
X227330000Y-129540000D01*
X228600000Y-128270000D02*
X228600000Y-124460000D01*
X227330000Y-129540000D02*
X228600000Y-128270000D01*
X120650000Y-137160000D02*
X120650000Y-133350000D01*
X121920000Y-132080000D02*
X121920000Y-124460000D01*
X120650000Y-133350000D02*
X121920000Y-132080000D01*
X173990000Y-137160000D02*
X173990000Y-132080000D01*
X175260000Y-130810000D02*
X175260000Y-124460000D01*
X173990000Y-132080000D02*
X175260000Y-130810000D01*
X67310000Y-137160000D02*
X67310000Y-124460000D01*
X288290000Y-88644000D02*
X288290000Y-95250000D01*
X334010000Y-95250000D02*
X334010000Y-124460000D01*
X334010000Y-124460000D02*
X334010000Y-137160000D01*
D24*
X48260000Y-159385000D02*
X48260000Y-119380000D01*
X54610000Y-165735000D02*
X48260000Y-159385000D01*
X69850000Y-165735000D02*
X54610000Y-165735000D01*
X57150000Y-110490000D02*
X59690000Y-110490000D01*
X48260000Y-119380000D02*
X57150000Y-110490000D01*
X353060000Y-137160000D02*
X353060000Y-115570000D01*
X299720000Y-137160000D02*
X299720000Y-115570000D01*
X246380000Y-137160000D02*
X246380000Y-110490000D01*
X193040000Y-137160000D02*
X193040000Y-110490000D01*
X139700000Y-137160000D02*
X139700000Y-110490000D01*
X86360000Y-137160000D02*
X86360000Y-110490000D01*
X154940000Y-137160000D02*
X154940000Y-130810000D01*
X157480000Y-128270000D02*
X157480000Y-110490000D01*
X154940000Y-130810000D02*
X157480000Y-128270000D01*
X101600000Y-137160000D02*
X101600000Y-110490000D01*
X208280000Y-137160000D02*
X208280000Y-123190000D01*
X210820000Y-120650000D02*
X210820000Y-110490000D01*
X208280000Y-123190000D02*
X210820000Y-120650000D01*
X261620000Y-137160000D02*
X261620000Y-110490000D01*
X314960000Y-137160000D02*
X314960000Y-115570000D01*
X368300000Y-137160000D02*
X371475000Y-137160000D01*
X326390000Y-137160000D02*
X326390000Y-115570000D01*
X326390000Y-115570000D02*
X326390000Y-91440000D01*
X273050000Y-137160000D02*
X273050000Y-110490000D01*
X219710000Y-137160000D02*
X219710000Y-110490000D01*
X166370000Y-137160000D02*
X166370000Y-110490000D01*
X113030000Y-137160000D02*
X113030000Y-110490000D01*
X59690000Y-110490000D02*
X59690000Y-137160000D01*
X241300000Y-100330000D02*
X250190000Y-91440000D01*
X371475000Y-165735000D02*
X336550000Y-165735000D01*
X371475000Y-91440000D02*
X371475000Y-115570000D01*
X371475000Y-115570000D02*
X371475000Y-137160000D01*
X371475000Y-137160000D02*
X371475000Y-165735000D01*
X104140000Y-100330000D02*
X107950000Y-96520000D01*
X104140000Y-110490000D02*
X104140000Y-100330000D01*
X157480000Y-100330000D02*
X157480000Y-110490000D01*
X157480000Y-100330000D02*
X161290000Y-96520000D01*
X179070000Y-110490000D02*
X179070000Y-104140000D01*
X187960000Y-100330000D02*
X187960000Y-110490000D01*
X187960000Y-100330000D02*
X184150000Y-96520000D01*
X210820000Y-100330000D02*
X210820000Y-110490000D01*
X210820000Y-100330000D02*
X214630000Y-96520000D01*
X241300000Y-100330000D02*
X241300000Y-110490000D01*
X232410000Y-110490000D02*
X232410000Y-104140000D01*
X237490000Y-96520000D02*
X241300000Y-100330000D01*
X123190000Y-162560000D02*
X123190000Y-165735000D01*
X176530000Y-162560000D02*
X176530000Y-165735000D01*
X229870000Y-162560000D02*
X229870000Y-165735000D01*
X283210000Y-162560000D02*
X283210000Y-165735000D01*
X69850000Y-162560000D02*
X69850000Y-165735000D01*
X336550000Y-165735000D02*
X336550000Y-162560000D01*
X69850000Y-165735000D02*
X123190000Y-165735000D01*
X123190000Y-165735000D02*
X176530000Y-165735000D01*
X176530000Y-165735000D02*
X229870000Y-165735000D01*
X229870000Y-165735000D02*
X283210000Y-165735000D01*
X283210000Y-165735000D02*
X336550000Y-165735000D01*
X59690000Y-162560000D02*
X59690000Y-149860000D01*
X62230000Y-149860000D02*
X62230000Y-162560000D01*
X64770000Y-149860000D02*
X64770000Y-162560000D01*
X67310000Y-149860000D02*
X67310000Y-162560000D01*
X86360000Y-162560000D02*
X86360000Y-152160000D01*
X93980000Y-162560000D02*
X93980000Y-152160000D01*
X101600000Y-162560000D02*
X101600000Y-152160000D01*
X113030000Y-149860000D02*
X113030000Y-162560000D01*
X115570000Y-149860000D02*
X115570000Y-162560000D01*
X118110000Y-149860000D02*
X118110000Y-162560000D01*
X120650000Y-149860000D02*
X120650000Y-162560000D01*
X139700000Y-152160000D02*
X139700000Y-162560000D01*
D25*
X173990000Y-96520000D02*
X173990000Y-82550000D01*
X227330000Y-96520000D02*
X227330000Y-82550000D01*
X179070000Y-96520000D02*
X179070000Y-83820000D01*
X232410000Y-96520000D02*
X232410000Y-83820000D01*
X181610000Y-96520000D02*
X181610000Y-85090000D01*
X234950000Y-96520000D02*
X234950000Y-85090000D01*
X115570000Y-96520000D02*
X115570000Y-92710000D01*
X127000000Y-81280000D02*
X115570000Y-92710000D01*
X313690000Y-106680000D02*
X313690000Y-82550000D01*
X113030000Y-96520000D02*
X113030000Y-92710000D01*
X125730000Y-80010000D02*
X113030000Y-92710000D01*
X314960000Y-107950000D02*
X314960000Y-81280000D01*
X110490000Y-96520000D02*
X110490000Y-92710000D01*
X124460000Y-78740000D02*
X110490000Y-92710000D01*
X316230000Y-109220000D02*
X316230000Y-80010000D01*
D24*
X147320000Y-152160000D02*
X147320000Y-162560000D01*
X154940000Y-152160000D02*
X154940000Y-162560000D01*
X166370000Y-149860000D02*
X166370000Y-162560000D01*
X168910000Y-149860000D02*
X168910000Y-162560000D01*
X171450000Y-149860000D02*
X171450000Y-162560000D01*
X173990000Y-149860000D02*
X173990000Y-162560000D01*
X193040000Y-152160000D02*
X193040000Y-162560000D01*
D25*
X306070000Y-97790000D02*
X306070000Y-104136000D01*
D24*
X200660000Y-152160000D02*
X200660000Y-162560000D01*
X208280000Y-152160000D02*
X208280000Y-162560000D01*
X219710000Y-149860000D02*
X219710000Y-162560000D01*
X222250000Y-149860000D02*
X222250000Y-162560000D01*
X224790000Y-149860000D02*
X224790000Y-162560000D01*
X227330000Y-149860000D02*
X227330000Y-162560000D01*
X246380000Y-162560000D02*
X246380000Y-152160000D01*
X254000000Y-162560000D02*
X254000000Y-152160000D01*
X261620000Y-162560000D02*
X261620000Y-152160000D01*
X273050000Y-149860000D02*
X273050000Y-162560000D01*
X275590000Y-149860000D02*
X275590000Y-162560000D01*
X278130000Y-149860000D02*
X278130000Y-162560000D01*
X280670000Y-149860000D02*
X280670000Y-162560000D01*
X299720000Y-152160000D02*
X299720000Y-162560000D01*
X307340000Y-152160000D02*
X307340000Y-162560000D01*
X314960000Y-152160000D02*
X314960000Y-162560000D01*
X326390000Y-149860000D02*
X326390000Y-162560000D01*
X328930000Y-149860000D02*
X328930000Y-162560000D01*
X331470000Y-149860000D02*
X331470000Y-162560000D01*
X334010000Y-149860000D02*
X334010000Y-162560000D01*
X353060000Y-152160000D02*
X353060000Y-162560000D01*
X360680000Y-152160000D02*
X360680000Y-162560000D01*
X368300000Y-152160000D02*
X368300000Y-162560000D01*
D25*
X222250000Y-96520000D02*
X222250000Y-93980000D01*
X52070000Y-121920000D02*
X52070000Y-153670000D01*
X205740000Y-96520000D02*
X205740000Y-121920000D01*
X212090000Y-90170000D02*
X205740000Y-96520000D01*
X218440000Y-90170000D02*
X212090000Y-90170000D01*
X222250000Y-93980000D02*
X218440000Y-90170000D01*
X91440000Y-162560000D02*
X91440000Y-140970000D01*
X283210000Y-104136000D02*
X283210000Y-115570000D01*
X57150000Y-115570000D02*
X57150000Y-137160000D01*
X115570000Y-104140000D02*
X115570000Y-125730000D01*
X54610000Y-125730000D02*
X54610000Y-137160000D01*
X152400000Y-96520000D02*
X152400000Y-118110000D01*
X168910000Y-93980000D02*
X165100000Y-90170000D01*
X165100000Y-90170000D02*
X158750000Y-90170000D01*
X158750000Y-90170000D02*
X152400000Y-96520000D01*
X168910000Y-96520000D02*
X168910000Y-93980000D01*
X83820000Y-118110000D02*
X83820000Y-162560000D01*
D24*
X78740000Y-162560000D02*
X78740000Y-152160000D01*
X74930000Y-162560000D02*
X78740000Y-162560000D01*
X78740000Y-162560000D02*
X83820000Y-162560000D01*
D25*
X219710000Y-96520000D02*
X219710000Y-93980000D01*
X105410000Y-120650000D02*
X105410000Y-153670000D01*
X207010000Y-97790000D02*
X207010000Y-120650000D01*
X213360000Y-91440000D02*
X207010000Y-97790000D01*
X217170000Y-91440000D02*
X213360000Y-91440000D01*
X219710000Y-93980000D02*
X217170000Y-91440000D01*
X144780000Y-162560000D02*
X144780000Y-140970000D01*
X285750000Y-104136000D02*
X285750000Y-116840000D01*
X110490000Y-116840000D02*
X110490000Y-137160000D01*
X118110000Y-104140000D02*
X118110000Y-119380000D01*
X107950000Y-119380000D02*
X107950000Y-137160000D01*
X153670000Y-97790000D02*
X153670000Y-119380000D01*
X160020000Y-91440000D02*
X153670000Y-97790000D01*
X166370000Y-96520000D02*
X166370000Y-93980000D01*
X166370000Y-93980000D02*
X163830000Y-91440000D01*
X163830000Y-91440000D02*
X160020000Y-91440000D01*
X137160000Y-119380000D02*
X137160000Y-162560000D01*
D24*
X132080000Y-152160000D02*
X132080000Y-162560000D01*
X128270000Y-162560000D02*
X132080000Y-162560000D01*
X132080000Y-162560000D02*
X137160000Y-162560000D01*
D25*
X161290000Y-137160000D02*
X161290000Y-129540000D01*
X120650000Y-129540000D02*
X120650000Y-104140000D01*
X123190000Y-104140000D02*
X123190000Y-133350000D01*
X214630000Y-133350000D02*
X214630000Y-137160000D01*
X125730000Y-96520000D02*
X127000000Y-96520000D01*
X267970000Y-130810000D02*
X267970000Y-137160000D01*
X128270000Y-97790000D02*
X128270000Y-130810000D01*
X127000000Y-96520000D02*
X128270000Y-97790000D01*
X123190000Y-96520000D02*
X123190000Y-93980000D01*
X321310000Y-132080000D02*
X321310000Y-137160000D01*
X129540000Y-96520000D02*
X129540000Y-132080000D01*
X127000000Y-93980000D02*
X129540000Y-96520000D01*
X123190000Y-93980000D02*
X127000000Y-93980000D01*
X158750000Y-153670000D02*
X158750000Y-130810000D01*
X160020000Y-129540000D02*
X160020000Y-119380000D01*
X158750000Y-130810000D02*
X160020000Y-129540000D01*
X217170000Y-96520000D02*
X217170000Y-93980000D01*
X217170000Y-93980000D02*
X215900000Y-92710000D01*
X215900000Y-92710000D02*
X214630000Y-92710000D01*
X214630000Y-92710000D02*
X208280000Y-99060000D01*
X208280000Y-99060000D02*
X208280000Y-119380000D01*
X198120000Y-140970000D02*
X198120000Y-162560000D01*
X288290000Y-104136000D02*
X288290000Y-118110000D01*
X163830000Y-118110000D02*
X163830000Y-137160000D01*
X154940000Y-99060000D02*
X154940000Y-125730000D01*
X163830000Y-93980000D02*
X162560000Y-92710000D01*
X162560000Y-92710000D02*
X161290000Y-92710000D01*
X161290000Y-92710000D02*
X154940000Y-99060000D01*
X163830000Y-96520000D02*
X163830000Y-93980000D01*
X190500000Y-125730000D02*
X190500000Y-162560000D01*
D24*
X185420000Y-152160000D02*
X185420000Y-162560000D01*
X181610000Y-162560000D02*
X185420000Y-162560000D01*
X185420000Y-162560000D02*
X190500000Y-162560000D01*
D25*
X161290000Y-104140000D02*
X161290000Y-127000000D01*
X297180000Y-127000000D02*
X297180000Y-162560000D01*
D24*
X292100000Y-152160000D02*
X292100000Y-162560000D01*
X288290000Y-162560000D02*
X292100000Y-162560000D01*
X292100000Y-162560000D02*
X297180000Y-162560000D01*
D25*
X173990000Y-104140000D02*
X173990000Y-129540000D01*
X350520000Y-129540000D02*
X350520000Y-162560000D01*
D24*
X345440000Y-152160000D02*
X345440000Y-162560000D01*
X341630000Y-162560000D02*
X345440000Y-162560000D01*
X345440000Y-162560000D02*
X350520000Y-162560000D01*
D25*
X171450000Y-96520000D02*
X171450000Y-93980000D01*
X157480000Y-88900000D02*
X151130000Y-95250000D01*
X166370000Y-88900000D02*
X157480000Y-88900000D01*
X171450000Y-93980000D02*
X166370000Y-88900000D01*
X243840000Y-128270000D02*
X243840000Y-162560000D01*
X151130000Y-128270000D02*
X151130000Y-95250000D01*
D24*
X238760000Y-152160000D02*
X238760000Y-162560000D01*
X234950000Y-162560000D02*
X238760000Y-162560000D01*
X238760000Y-162560000D02*
X243840000Y-162560000D01*
D25*
X224790000Y-96520000D02*
X224790000Y-93980000D01*
X212090000Y-125730000D02*
X212090000Y-153670000D01*
X204470000Y-95250000D02*
X204470000Y-125730000D01*
X210820000Y-88900000D02*
X204470000Y-95250000D01*
X219710000Y-88900000D02*
X210820000Y-88900000D01*
X224790000Y-93980000D02*
X219710000Y-88900000D01*
X251460000Y-140970000D02*
X251460000Y-162560000D01*
X290830000Y-104136000D02*
X290830000Y-110490000D01*
X217170000Y-119380000D02*
X217170000Y-137160000D01*
X289560000Y-111760000D02*
X289560000Y-119380000D01*
X290830000Y-110490000D02*
X289560000Y-111760000D01*
X214630000Y-104140000D02*
X214630000Y-120650000D01*
X265430000Y-120650000D02*
X265430000Y-153670000D01*
X227330000Y-104140000D02*
X227330000Y-125730000D01*
X318770000Y-125730000D02*
X318770000Y-153670000D01*
X304800000Y-140970000D02*
X304800000Y-162560000D01*
X293370000Y-104136000D02*
X293370000Y-110490000D01*
X270510000Y-120650000D02*
X270510000Y-137160000D01*
X294640000Y-111760000D02*
X294640000Y-120650000D01*
X293370000Y-110490000D02*
X294640000Y-111760000D01*
X358140000Y-140970000D02*
X358140000Y-162560000D01*
X295910000Y-104136000D02*
X295910000Y-121920000D01*
X323850000Y-121920000D02*
X323850000Y-137160000D01*
M02*
